<svg xmlns="http://www.w3.org/2000/svg" width="24" height="24" viewBox="0 0 24 24" shape-rendering="crispEdges"><path fill="#000000" d="M2 0h13v1h-13zM2 1h1v1h-1zM14 1h1v1h-1zM2 2h1v1h-1zM4 2h9v1h-9zM14 2h1v1h-1zM3 3h1v1h-1zM5 3h7v1h-7zM13 3h1v1h-1zM4 4h1v1h-1zM6 4h5v1h-5zM12 4h1v1h-1zM5 5h1v1h-1zM7 5h3v1h-3zM11 5h1v1h-1zM6 6h1v1h-1zM8 6h1v1h-1zM10 6h1v1h-1zM7 7h3v1h-3zM7 8h3v1h-3zM6 9h1v1h-1zM8 9h1v1h-1zM10 9h1v1h-1zM5 10h1v1h-1zM8 10h1v1h-1zM11 10h1v1h-1zM4 11h1v1h-1zM8 11h1v1h-1zM12 11h1v1h-1zM3 12h1v1h-1zM7 12h3v1h-3zM13 12h1v1h-1zM2 13h1v1h-1zM6 13h5v1h-5zM14 13h1v1h-1zM2 14h1v1h-1zM5 14h7v1h-7zM14 14h1v1h-1zM2 15h13v1h-13z"/><path fill="#ffffff" d="M3 1h11v1h-11zM3 2h1v1h-1zM13 2h1v1h-1zM4 3h1v1h-1zM12 3h1v1h-1zM5 4h1v1h-1zM11 4h1v1h-1zM6 5h1v1h-1zM10 5h1v1h-1zM7 6h1v1h-1zM9 6h1v1h-1zM7 9h1v1h-1zM9 9h1v1h-1zM6 10h2v1h-2zM9 10h2v1h-2zM5 11h3v1h-3zM9 11h3v1h-3zM4 12h3v1h-3zM10 12h3v1h-3zM3 13h3v1h-3zM11 13h3v1h-3zM3 14h2v1h-2zM12 14h2v1h-2z"/></svg>
