<svg xmlns="http://www.w3.org/2000/svg" width="24" height="24" viewBox="0 0 24 24" shape-rendering="crispEdges"><path fill="#000000" d="M8 0h1v1h-1zM7 1h1v1h-1zM9 1h1v1h-1zM6 2h1v1h-1zM10 2h1v1h-1zM5 3h1v1h-1zM11 3h1v1h-1zM5 4h3v1h-3zM9 4h3v1h-3zM3 5h2v1h-2zM7 5h1v1h-1zM9 5h1v1h-1zM12 5h2v1h-2zM2 6h1v1h-1zM4 6h1v1h-1zM7 6h1v1h-1zM9 6h1v1h-1zM12 6h1v1h-1zM14 6h1v1h-1zM1 7h1v1h-1zM4 7h4v1h-4zM9 7h4v1h-4zM15 7h1v1h-1zM0 8h1v1h-1zM16 8h1v1h-1zM1 9h1v1h-1zM4 9h4v1h-4zM9 9h4v1h-4zM15 9h1v1h-1zM2 10h1v1h-1zM4 10h1v1h-1zM7 10h1v1h-1zM9 10h1v1h-1zM12 10h1v1h-1zM14 10h1v1h-1zM3 11h2v1h-2zM7 11h1v1h-1zM9 11h1v1h-1zM12 11h2v1h-2zM5 12h3v1h-3zM9 12h3v1h-3zM5 13h1v1h-1zM11 13h1v1h-1zM6 14h1v1h-1zM10 14h1v1h-1zM7 15h1v1h-1zM9 15h1v1h-1zM8 16h1v1h-1z"/><path fill="#ffffff" d="M8 1h1v1h-1zM7 2h3v1h-3zM6 3h5v1h-5zM8 4h1v1h-1zM8 5h1v1h-1zM3 6h1v1h-1zM8 6h1v1h-1zM13 6h1v1h-1zM2 7h2v1h-2zM8 7h1v1h-1zM13 7h2v1h-2zM1 8h15v1h-15zM2 9h2v1h-2zM8 9h1v1h-1zM13 9h2v1h-2zM3 10h1v1h-1zM8 10h1v1h-1zM13 10h1v1h-1zM8 11h1v1h-1zM8 12h1v1h-1zM6 13h5v1h-5zM7 14h3v1h-3zM8 15h1v1h-1z"/></svg>
